/* XPM */
static char * encounter_xpm[] = {
"16 16 6 1",
" 	c None",
".	c #808080",
"+	c #FF0000",
"@	c #800000",
"#	c #000000",
"$	c #C0C0C0",
" ..          .. ",
".++.        .++.",
".+.         ..@.",
".++..      .++@.",
" .+++......+@@. ",
"  .+@+++++++@.  ",
"  .@@@++++@@@.  ",
"  .@@#@++@#@@.  ",
"   .@$@++@$@.   ",
"   .@$@++@$@.   ",
"  .@@@@@+@@@@.  ",
" .@@.@@@+@@.@@. ",
"  .@..@@@@..@.  ",
"   . .@@@@. .   ",
"      .@@.      ",
"       ..       "};
